<svg xmlns="http://www.w3.org/2000/svg" viewBox="0 0 256 256">
  <defs>
    <radialGradient id="bg" cx="50%" cy="28%" r="95%">
      <stop offset="0%" stop-color="#cfc2ff"/>
      <stop offset="100%" stop-color="#6d4ae0"/>
    </radialGradient>
  </defs>
  <rect width="256" height="256" fill="url(#bg)"/>
  <!-- stars -->
  <circle cx="42" cy="52" r="5" fill="#fff" opacity=".9"/>
  <circle cx="216" cy="44" r="4" fill="#fff" opacity=".8"/>
  <circle cx="230" cy="120" r="5" fill="#fff" opacity=".7"/>
  <circle cx="34" cy="150" r="4" fill="#fff" opacity=".7"/>
  <path d="M70 90 l4 10 l10 4 l-10 4 l-4 10 l-4 -10 l-10 -4 l10 -4 z" fill="#fff" opacity=".85"/>
  <!-- rocket -->
  <g transform="rotate(18 128 128)">
    <path d="M128 30 C158 62 168 104 164 150 L92 150 C88 104 98 62 128 30 Z" fill="#f4f2ff"/>
    <path d="M128 30 C158 62 168 104 164 150 L128 150 Z" fill="#d9d2f5"/>
    <circle cx="128" cy="96" r="22" fill="#6d4ae0"/>
    <circle cx="128" cy="96" r="22" fill="none" stroke="#4a2fb0" stroke-width="6"/>
    <circle cx="122" cy="90" r="7" fill="#cfc2ff"/>
    <!-- fins -->
    <path d="M92 128 L58 176 L92 168 Z" fill="#e33d17"/>
    <path d="M164 128 L198 176 L164 168 Z" fill="#e33d17"/>
    <!-- flame -->
    <path d="M106 152 C106 190 118 208 128 226 C138 208 150 190 150 152 Z" fill="#ffb03a"/>
    <path d="M116 152 C116 182 122 196 128 208 C134 196 140 182 140 152 Z" fill="#ffd23e"/>
  </g>
</svg>
